<svg xmlns="http://www.w3.org/2000/svg" viewBox="0 0 980 980" fill="none" shape-rendering="auto"><metadata xmlns:rdf="http://www.w3.org/1999/02/22-rdf-syntax-ns#" xmlns:xsi="http://www.w3.org/2001/XMLSchema-instance" xmlns:dc="http://purl.org/dc/elements/1.1/" xmlns:dcterms="http://purl.org/dc/terms/"><rdf:RDF><rdf:Description><dc:title>Lorelei</dc:title><dc:creator>Lisa Wischofsky</dc:creator><dc:source xsi:type="dcterms:URI">https://www.figma.com/community/file/1198749693280469639</dc:source><dcterms:license xsi:type="dcterms:URI">https://creativecommons.org/publicdomain/zero/1.0/</dcterms:license><dc:rights>Remix of „Lorelei” (https://www.figma.com/community/file/1198749693280469639) by „Lisa Wischofsky”, licensed under „CC0 1.0” (https://creativecommons.org/publicdomain/zero/1.0/)</dc:rights></rdf:Description></rdf:RDF></metadata><mask id="viewboxMask"><rect width="980" height="980" rx="0" ry="0" x="0" y="0" fill="#fff" /></mask><g mask="url(#viewboxMask)"><g transform="translate(10 -60)"><path d="M665 172c3 4 4 10 4 15 1 19-5 36-15 52l12-3c14-3 29-2 43 2 10 3 22 9 28 18 2 3 5 7 4 11h-3c-4-4-9-8-15-10-12-6-25-8-38-8-9 0-19 1-28 4l6 2c14 6 26 15 36 25 14 13 26 30 30 48 4 14 2 27-2 40l5 13a253 253 0 0 1 9 103l-2 10c8 0 15 0 22 4a43 43 0 0 1 21 41l-1 2-2-3c-4-8-9-16-16-22-6-4-12-6-19-6 13 13 19 31 19 49 0 10-1 20-6 29-1 2-2 6-6 5l-1-5c0-9 0-17-3-25-3-11-10-20-20-26-1-1-2-2-3 0l-14 19c-6 5-10 12-15 18l-2 3 5 23a201 201 0 0 1-4 72c-6 15-16 28-27 40 5 9 9 18 10 29 0 11 1 23-1 34-3 9-8 17-16 22 5 7 8 15 10 23 1 6 2 13 0 20 0 2-1 4-4 4-2 1-3-1-3-2l-7-22c2 6 1 13 1 19-2 13-6 26-14 37-3 5-7 9-12 11-3 1-6-1-8-3-5-4-9-10-13-15-6-9-13-19-14-31v-14c-8-1-15-5-20-12-6-7-11-14-12-24-2-21 5-41 17-57 3-5 7-9 12-12l-10-9a97 97 0 0 1-25-50c-2-17 1-36 7-52s14-31 23-45l8-10c-5-7-7-16-9-25l-3-18v-29c0-13 0-27 5-39-3 1-6 2-9 1-2 0-2-1-1-2l9-21 4-20c1-27-5-54-14-80v16c-1 18-6 37-15 53-5 9-11 17-19 24-11 9-24 17-38 20-3 1-8 2-10-2 10-7 20-12 29-20 7-7 13-14 18-22 5-9 10-18 12-28 3-10 5-21 5-32-3 12-7 23-13 34-12 22-29 43-49 59-8 7-18 13-28 18-6 2-14 6-21 5-2 0-5 0-5-3l4-17c4-16 7-32 7-49a166 166 0 0 1-47 58c-18 14-37 26-58 34-4 14-5 29-6 43 7 4 12 10 17 16 15 19 24 42 27 65 2 15-1 29-5 43a220 220 0 0 1-16 37c15 4 28 17 32 32 4 14 3 29-2 42-6 18-18 31-33 42 10 8 13 21 15 33 3 12 3 25 1 38-1 7-3 15-8 20-1 2-2 4-5 4-6 1-12-3-18-5-13-7-23-17-30-30 3 9 8 16 13 24 4 5 9 10 15 14 1 1 0 3-1 4-4 1-8 0-12-1-8-2-16-7-21-14-6-7-10-17-13-26-4-18-2-38 6-55-9 1-17 2-26-1-9-2-16-8-20-16a75 75 0 0 1-7-57c-3 3-5 6-6 10-7 13-8 28-4 43 0 2 2 5-1 5-2 0-4-2-5-4-6-9-9-20-9-31 0-15 6-29 17-39l3-4c-11-1-22-4-31-12a70 70 0 0 1-22-37c-5-20-5-41-3-60 3-28 13-55 30-78v-1c-8-8-13-17-17-27-7-19-8-38-5-58 4-30 18-59 36-83l16-22c15-20 34-36 55-49 25-17 54-29 83-38a376 376 0 0 1 199-1l4 1c11-4 21-10 30-18 10-8 18-20 26-30 3-5 6-11 10-15 2-1 5-3 6 0Z" fill="#000000"/><path d="M495 234c28 1 56 6 84 15a201 201 0 0 1 100 65c19 25 31 55 35 86a361 361 0 0 1 2 101l-5 34-4 20c-1 2-1 2-3 2-2-4-2-8-2-12-1-15 1-29 2-44 1-24 3-48 1-72l-6-45c-7-28-20-54-40-75-18-18-40-33-63-43-22-9-44-15-67-19-18-3-36-4-54-4a277 277 0 0 0-128 29c-13 9-25 20-35 32a276 276 0 0 0-55 139c-1 24 0 47 8 70l7 15 12 1 1 3c-3 2-7 2-11 3-10 2-20 6-29 12-7 5-14 11-18 19-5 10-3 22-1 33 5 19 17 37 33 49 11 9 25 14 39 16 10 2 20 0 30-1 5 4 8 12 11 17l18 27a136 136 0 0 0 66 50c22 9 45 14 68 19l41 8 17 5v4h-12a535 535 0 0 1-67-8 255 255 0 0 1-84-33c-11-7-21-16-29-27a214 214 0 0 1-16 123c-15 27-40 48-70 57-3 1-7 2-10 1-2 0-2-1-2-3 1-3 4-5 6-6 12-8 26-14 38-23 13-11 24-23 31-38 6-15 10-32 12-49 2-13 3-26 2-40l-4-38-18-36-19 4a88 88 0 0 1-75-38 93 93 0 0 1-20-58c0-9 3-18 8-25s12-13 19-17c5-4 12-6 18-8l-9-24c-5-22-5-45-2-67a292 292 0 0 1 63-149c9-10 18-19 29-26 7-4 14-5 20-9 43-19 90-25 137-22Z" fill="#000"/><path d="M475 243a276 276 0 0 1 121 23c23 10 45 25 63 43 20 21 33 47 40 75l6 45c2 24 0 48-1 72-1 15-3 29-2 44 0 4 0 8 2 12l-1 20c-2 5-2 10-2 16-2 24-2 49-6 74-1 12-3 25-8 36-3 9-8 17-15 24-12 13-27 24-43 33-19 11-39 16-58 24-5 2-10 4-13 8 8 1 15 0 23-2-5 12-6 24-6 36 0 5-1 11 1 16 3 5 8 9 13 12l35 13c22 8 43 18 65 27 2 4 5 7 6 12 6 11 7 23 3 35-5 13-15 24-27 31-16 11-36 19-55 24a494 494 0 0 1-235-7c-20-7-40-14-58-24-14-8-29-18-40-31-6-8-11-19-12-29a122 122 0 0 0 86-107c4-24 4-49 0-73 8 11 18 20 29 27l27 14a331 331 0 0 0 124 27h12v-4l-17-5-41-8c-23-5-46-10-68-19-13-6-27-13-39-21-10-9-19-18-27-29l-18-27c-3-5-6-13-11-17-10 1-20 3-30 1-14-2-28-7-39-16a94 94 0 0 1-33-49c-2-11-4-23 1-33 4-8 11-14 18-19 9-6 19-10 29-12 4-1 8-1 11-3l-1-3-12-1-7-15c-8-23-9-46-7-70a276 276 0 0 1 54-139c10-12 22-23 35-32a277 277 0 0 1 128-30Z" fill="#ffffff"/><path d="M260 571c4 0 7 0 11 2 5 1 11 4 14 8 2 3 2 7 0 10-5 6-12 10-16 16 6 4 14 6 21 9 4 1 8 3 11 6l1 3-8-2-24-7c-4-1-8-3-9-7-1-3 1-7 3-10l15-13c-4-7-15-8-19-15ZM703 577l2 3 2 16a483 483 0 0 1-2 89c-2 11-5 23-10 33a198 198 0 0 1-106 71c-1 14-3 31-2 47l5 5c8 6 18 9 27 12a451 451 0 0 1 68 28c7 4 13 9 18 15-5 1-10-1-16-2-22-9-43-19-65-27l-35-13c-5-3-10-7-13-12-2-5-1-11-1-16 0-12 1-24 6-36-8 2-15 3-23 2 3-4 8-6 13-8 19-8 39-13 58-24 16-9 31-20 43-33 7-7 12-15 15-24 5-11 7-24 8-36 4-25 4-50 6-74 0-6 0-11 2-16Z" fill="#000"/><path d="M670 463c7 1 14 4 18 10 6 7 7 15 8 24 0 4-1 9-3 12-3 4-9 4-12 0-2-3-2-8-3-12 0-7-3-15-10-18 10 15 11 33 7 50-2 9-6 16-13 22-4 4-11 6-17 4-6-1-10-6-13-11-4-8-6-16-6-25l-5 14c-1 3-2 6-5 9-3-3-3-6-4-10a83 83 0 0 1 34-61c7-5 15-8 24-8ZM455 468c14 0 29 5 40 14 14 10 24 25 28 42v14c-1 1-2 2-4 1a163 163 0 0 0-17-27c1 14-2 28-11 39-6 8-15 14-26 15-11 0-21-7-27-16-8-12-9-27-6-41 2-9 7-17 13-23l-13 5c-6 5-13 9-18 16l-5 6c-3 4-9 4-12 0-3-3-3-8-1-12 6-8 13-16 22-22 11-8 24-11 37-11Z" fill="#000000"/><path d="M659 498c1 7-1 13-3 20l-5 9c-1 2-4 2-5 1l-4-7c-3-6-5-13-4-19 0-3 2-4 5-4 3 1 4 3 5 5 1-2 2-6 4-7 2-2 6-1 7 2ZM475 500c4 0 6 3 7 6 1 8-2 14-4 22 0 4-2 8-6 11-2 1-4 0-5-2l-10-15-3-8c-1-4-1-8 2-12 2-2 5-2 8 0l5 6c1-4 2-7 6-8Z" fill="#fff"/><path d="M467 377c15 1 32 5 44 15 4 3 8 7 9 11 1 3 1 5-2 6-3 0-6-3-8-5-11-8-24-13-38-13-8 0-15 2-23 4-15 3-29 11-38 23-3 3-5 7-10 8s-10-3-10-8c-1-4 2-8 4-11 12-15 30-25 49-29 7-2 15-2 23-1ZM672 387c5 2 10 7 13 11 3 3 5 7 5 11 0 6-6 10-12 8-5-2-6-7-10-11-4-3-9-7-13-8-12-4-24 1-32 9l-9 9c0-7 4-13 9-17 12-13 32-18 49-12Z" fill="#000000"/><path d="M603 613v1c-4 8-11 15-20 18-3 1-7 1-9-1v-4c7-5 16-9 24-12l5-2Z" fill="#000000"/><path fill-rule="evenodd" clip-rule="evenodd" d="m463 648-14-4h-1c-2-1-5-1-6 1-1 1 0 3 1 3l6 3 2 1a257 257 0 0 0 73 24c0 7 2 14 7 20 5 7 12 13 21 16 10 4 21 3 31-1s18-12 22-22c2-4 2-9 2-13l18-6v-1l2-2a1497 1497 0 0 0-29 0 324 324 0 0 1-86-4l-39-11-2-1-8-3Zm69 29c1 10 9 18 18 23 12 9 32 5 40-8 3-4 4-9 5-14v-1l-26 2 1 1c0 3 1 5-1 8s-6 3-7 0c-2-3-2-6-1-9a1036 1036 0 0 0-25-2h-4Z" fill="#000000"/><path d="M664 170c4 3 5 10 5 15 1 19-5 38-15 54l19-4c15-2 31 1 45 7 9 4 19 10 22 20 1 2 2 6-1 5-8-5-15-11-23-14-19-6-40-5-59 0l17 8c18 10 34 25 45 43 8 13 13 27 12 42 0 16-7 31-16 44a150 150 0 0 1-60 48h-6l10-11c5-5 8-10 11-16 5-10 5-21 4-32-3-22-12-43-25-60l-7-9 5 23c1 20-2 42-10 61-7 14-18 27-30 38-7 5-15 10-24 11-1 1-5 0-5-2l8-14c5-11 6-23 6-35 0-25-6-49-14-72v16c-1 18-6 37-15 53-5 9-12 17-20 24-10 10-23 17-37 20-3 1-8 2-10-2l17-11c11-8 21-17 29-29 6-11 12-22 15-35l3-27c-3 12-7 23-13 34-12 21-27 40-45 56-10 8-20 16-32 21-7 3-14 6-21 5-2 0-5-1-5-3l1-7c6-19 10-39 10-59-8 16-18 31-31 44-21 21-46 37-74 48-2 5-2 11-3 16-3 23-4 47 0 69s14 43 29 60l2 3c-3 0-6-2-8-4a96 96 0 0 1-34-48l2 39v9c0 2-2 3-3 2l-5-5a109 109 0 0 1-58-71l-2-4c-17-15-31-33-40-53-12-24-17-52-14-79 4-27 15-52 31-74 22-30 51-52 84-69a351 351 0 0 1 256-25l6 1c11-4 21-10 30-17 13-11 23-27 32-41 3-3 4-7 9-7ZM328 777v2c4 0 7-1 10 1l12 1c9 2 17 8 22 16 4 8 6 17 7 25 3 12 3 24 2 36-2 7-4 15-9 21-1 2-2 4-4 4-4 1-8 0-11-2a74 74 0 0 1-38-33c2 7 6 13 10 19 4 7 10 13 16 17 1 1 3 2 2 4-1 3-6 3-9 2-11-2-21-8-27-18a81 81 0 0 1-6-77l9-14 4-1c3-1 7-4 10-3ZM654 792c6 3 10 11 12 17 4 8 6 18 5 27 0 3-1 6-3 8-2 1-5 0-5-2l-6-22v19c-2 14-6 27-14 38-3 4-6 8-11 10h-3c-5-1-8-5-11-8l-13-19c-4-6-8-13-9-21s1-16 2-24c4 0 8-1 11-3l13-4c7-2 13-6 19-9l13-7Z" fill="#000000"/></g><g transform="translate(10 -60)"></g></g></svg>