<svg xmlns="http://www.w3.org/2000/svg" viewBox="0 0 980 980" fill="none" shape-rendering="auto"><metadata xmlns:rdf="http://www.w3.org/1999/02/22-rdf-syntax-ns#" xmlns:xsi="http://www.w3.org/2001/XMLSchema-instance" xmlns:dc="http://purl.org/dc/elements/1.1/" xmlns:dcterms="http://purl.org/dc/terms/"><rdf:RDF><rdf:Description><dc:title>Lorelei</dc:title><dc:creator>Lisa Wischofsky</dc:creator><dc:source xsi:type="dcterms:URI">https://www.figma.com/community/file/1198749693280469639</dc:source><dcterms:license xsi:type="dcterms:URI">https://creativecommons.org/publicdomain/zero/1.0/</dcterms:license><dc:rights>Remix of „Lorelei” (https://www.figma.com/community/file/1198749693280469639) by „Lisa Wischofsky”, licensed under „CC0 1.0” (https://creativecommons.org/publicdomain/zero/1.0/)</dc:rights></rdf:Description></rdf:RDF></metadata><mask id="viewboxMask"><rect width="980" height="980" rx="0" ry="0" x="0" y="0" fill="#fff" /></mask><g mask="url(#viewboxMask)"><g transform="translate(10 -60)"><path d="M663 170c1 0 3 1 3 3 3 4 3 10 3 15 1 18-5 36-15 51 13-4 26-6 40-4 13 2 28 6 38 16 5 3 10 10 9 16l-6-2c-7-6-14-10-23-13-18-5-37-4-55 1 11 4 22 10 31 17 17 13 31 30 39 50 5 13 6 27 2 40l-2 7 3 9a244 244 0 0 1-2 120c-6 22-13 44-22 64-10 24-21 47-29 73-6 16-9 33-9 51l2 12 5 24a59 59 0 0 0 27 32c7 5 15 7 23 9 11 3 23 4 34 1 4-1 7-3 12-3-7 7-16 10-24 13-19 4-37-1-54-8l16 19c7 7 14 14 22 19l6 4-3 1c-2 7-9 10-15 13-8 2-16 2-24 2-10-1-21-3-31-6-8-3-14-8-20-14-7 13-19 24-33 30-7 4-15 7-23 4h-13c-13 0-25-2-38-3-21-1-42-5-62-7-21-2-43-2-64-2-23 1-45 4-66 12l-9 4c-14 7-29 13-45 13-16 1-33-2-46-12-3-2-7-5-8-9-1-3 2-6 4-8 9-7 17-15 23-24a91 91 0 0 1-80 15c-6-3-14-6-18-12-3-2-4-5-2-9 8 8 20 11 31 11l22-2c-12-2-23-5-33-12-10-6-20-16-26-27-2-5-4-13-1-18 2-2 3-2 5-2 3 6 6 11 12 15 6 3 13 3 19 0 9-3 16-12 21-20a141 141 0 0 0 20-70c1-11 0-23-1-34-3-31-11-63-17-94a362 362 0 0 1-7-95 210 210 0 0 1 31-107c21-34 52-60 87-79 45-23 96-36 147-38 44-2 90 3 132 18 23-11 42-31 52-54l5-16Z" fill="#000000"/><path d="M528 244c41 6 80 22 113 47 28 21 50 49 65 81 13 28 20 60 19 91-1 15-3 30-8 44h-2l1-21c1-30-2-59-13-87-10-30-28-57-50-79-42-40-98-62-156-63a243 243 0 0 0-196 94 207 207 0 0 0-40 139l2 25c8 0 19 0 25 7l-3 3-17 1c-12 1-24 5-33 13a64 64 0 0 0-17 39c-5 32 12 65 39 83 16 10 36 15 55 9 4-2 9-5 14-3 3 1 4 4 5 7a251 251 0 0 0 90 100c8 7 18 13 28 18 18 8 38 14 57 19l32 8c5 1 9 1 13 3l-4 1c-25 2-48-3-72-10-12-3-23-7-34-12a306 306 0 0 1-84-63l2 28c1 17 0 35-6 52-4 12-11 24-19 34-10 10-22 19-34 26-10 7-21 14-32 18l-16 5 9-9 31-20 22-17a95 95 0 0 0 32-56c2-14 2-28 2-43v-27c-10-14-22-29-27-46-17 8-38 7-55-1-17-7-32-19-43-33-12-17-19-36-21-56s2-40 15-56c9-10 22-18 35-21-4-14-6-29-6-44a234 234 0 0 1 83-173 249 249 0 0 1 199-55Z" fill="#000"/><path d="M653 320c22 22 40 49 50 79 11 28 14 57 13 87l-1 21-5 15-2 13 2 56c0 21 1 42-1 63l-3 47c-2 16-7 31-14 45-11 18-26 33-44 44-13 8-27 12-41 16l-38 11-17 3c0 1 1 2 3 2 8 5 17 5 26 4-3 7-4 14-2 22 3 7 11 11 17 14 12 6 24 7 36 9 7 6 14 14 16 24 2 8 2 16-2 23-5 10-14 18-24 23-13 8-27 14-42 18a468 468 0 0 1-222-1c-17-4-33-9-48-17-12-6-23-13-32-22-5-7-9-14-10-23 11-4 22-11 32-18 12-7 24-16 34-26 8-10 15-22 19-34 6-17 7-35 6-52l-2-28 22 23c19 15 40 30 62 40 11 5 22 9 34 12 24 7 47 12 72 10l4-1c-4-2-8-2-13-3l-32-8c-19-5-39-11-57-19l-29-17c-11-9-23-17-33-27a251 251 0 0 1-56-74c-1-3-2-6-5-7-5-2-10 1-14 3-19 6-39 1-55-9a88 88 0 0 1-39-83c1-14 7-28 17-39 9-8 21-12 33-13l17-1 3-3c-6-7-17-7-25-7l-2-25a207 207 0 0 1 40-139 243 243 0 0 1 196-94c58 1 114 23 156 63Z" fill="#ffffff"/><path d="M710 522c3 0 3 4 4 6 3 11 4 23 5 34l2 21c1 22 2 43 1 65-1 21-1 44-5 65a136 136 0 0 1-80 99c-15 7-31 11-48 13v15c1 3 3 4 5 6 12 6 23 8 36 11 12 3 24 5 36 11-3 3-7 4-11 4-7 1-15-1-23-1-12-2-24-3-36-9-6-3-14-7-17-14-2-8-1-15 2-22-9 1-18 1-26-4-2 0-3-1-3-2l17-3 38-11c14-4 28-8 41-16 18-11 33-26 44-44 7-14 12-29 14-45l3-47c2-21 1-42 1-63l-2-56 2-13ZM252 549c8 0 17 1 23 7 5 4 10 9 12 15 1 3 0 6-2 8l-13 8c-7 6-7 19 0 25 6 5 14 8 21 11 2 0 5 1 6 3-1 2-3 3-5 3-10 0-20-3-28-9-5-3-8-8-9-13-2-8-2-17 4-24 4-6 11-9 18-12-4-5-7-11-14-13-7-3-15-3-22-5l9-4Z" fill="#000"/><path d="M683 467c8 6 11 15 12 25 1 5 1 12-2 16-2 5-10 5-12 0-3-4-2-10-3-14-1-5-3-11-7-14-4-2-8-1-11 0 9 13 9 30 4 45-2 6-5 12-9 17-4 3-8 6-12 7-4 2-10 1-14-2-5-5-7-11-7-17-1 4-2 9-6 12-2-2-3-3-3-6-1-7 0-14 2-20 4-14 11-26 20-36 7-7 15-13 25-16 8-2 16-1 23 3ZM479 473c18 7 33 21 40 40 3 7 5 15 4 22 0 2-1 5-3 4-3-2-5-6-6-9-5-9-10-17-17-25-8-9-18-16-29-19 6 10 8 22 8 34-1 11-5 22-12 30-5 6-12 11-20 10-6 0-11-1-15-5-9-7-13-17-15-28-1-8 0-15 2-22l-7 8c-3 4-10 4-13 0s-2-9 1-12c9-15 24-27 41-31 13-3 28-2 41 3Z" fill="#000000"/><path d="M496 375c10 1 20 4 27 11 3 3 5 7 6 11-11-5-22-6-33-6-6 1-12 4-17 7-23 12-43 29-66 41l-20 14-11 11c-1-5 1-10 2-14 4-10 11-17 19-24l24-17c13-9 27-19 41-26 9-4 18-8 28-8ZM701 411c-6 3-11 3-17 4-5 1-10 3-14 6-9 7-17 15-24 24-9 10-17 18-29 24l-7 2c-2 1-4 0-6 2-4 5-4 13-9 17-2 0-2-2-2-3v-13c1-5 3-12 7-16s9-4 13-8l15-10 23-18c6-5 13-10 20-13 10-3 21-3 30 2Z" fill="#000000"/><path d="M609 602c1 9-4 16-9 23-4 3-9 6-15 6s-13-3-19-5c-4-2-8-3-11-6l5-4c9-1 17 3 25 4 4 0 7-3 9-6 5-5 9-10 15-12Z" fill="#000000"/><path d="M465 666c10-1 20 1 30 2 16 1 31 5 47 6h25l23-2c11-2 22-4 33-3 6 0 12 2 16 6 4 3 7 9 6 14-1 7-6 13-11 18l-24 13c-10 3-19 6-29 4-4-1-6-3-8-6 8-4 16-3 24-5 12-3 24-8 33-16 3-2 6-6 7-10s-2-6-5-8c-6-2-13-2-19-1-16 2-32 6-48 7l-28-1c-14-1-28-5-42-7l-27-2c-2 0-4-1-6 1-1 3 0 8 2 11 5 6 12 9 19 13l19 8c3 1 7 2 8 5 2 7 1 14 4 21 1 2 3 4 6 5 6-5 4-11 8-17 2-4 4-8 9-8 9-1 18 1 27 2 2 1 4 1 5 3 0 3-3 3-5 3-8 1-18-2-26-2-3-1-3 2-5 3-3 6-2 12-6 16-1 3-5 5-8 5-4-1-8-4-10-7-4-6-4-14-5-21-7-1-14-2-20-5l-17-8c-6-4-10-10-12-16v-14c2-4 6-6 10-7Z" fill="#000000"/><path d="m663 170 4 3c2 5 2 11 2 16 0 18-6 35-15 50 13-4 26-6 40-4 13 2 28 6 38 16 5 4 10 10 9 16l-6-3c-7-5-14-9-22-11-19-6-38-5-56 0l17 8c23 13 42 32 52 56 5 13 7 26 4 39s-9 26-17 36a151 151 0 0 1-51 42c-4 3-9 5-14 5l10-12c9-7 15-18 16-29 2-13 0-26-4-38-5-19-15-35-28-50 8 27 6 56-4 81-6 14-15 26-26 36-7 7-16 13-26 16-3 0-6 1-8-1l7-13c4-9 6-18 6-27 2-22-2-44-7-65l-6-18c1 20-1 39-8 57a94 94 0 0 1-61 56c-4 1-9 3-13-1 6-4 12-7 17-12 9-6 17-13 24-21l11-18c8-16 12-34 12-52-2 12-7 23-12 34-11 19-24 36-40 51-14 14-30 25-49 31-4 1-7 2-11 1l-4-2c0-7 3-13 4-19 4-16 7-32 7-48a181 181 0 0 1-56 65c-16 11-32 20-50 27a253 253 0 0 0-1 89c4 20 14 39 27 54l4 5c-6 0-9-4-13-7a97 97 0 0 1-29-46c-1 12 0 24 1 37 0 5 1 10-1 15l-4-3-11-7c-10-7-19-14-27-23-11-12-19-27-23-43l-3-6c-14-13-27-28-36-45-10-19-16-39-17-60-2-32 7-63 24-90 19-31 48-55 79-73a354 354 0 0 1 280-28c3 1 6 4 10 2a102 102 0 0 0 52-63l2-6Z" fill="#000000"/></g><g transform="translate(10 -60)"></g></g></svg>