<svg xmlns="http://www.w3.org/2000/svg" viewBox="0 0 980 980" fill="none" shape-rendering="auto"><metadata xmlns:rdf="http://www.w3.org/1999/02/22-rdf-syntax-ns#" xmlns:xsi="http://www.w3.org/2001/XMLSchema-instance" xmlns:dc="http://purl.org/dc/elements/1.1/" xmlns:dcterms="http://purl.org/dc/terms/"><rdf:RDF><rdf:Description><dc:title>Lorelei</dc:title><dc:creator>Lisa Wischofsky</dc:creator><dc:source xsi:type="dcterms:URI">https://www.figma.com/community/file/1198749693280469639</dc:source><dcterms:license xsi:type="dcterms:URI">https://creativecommons.org/publicdomain/zero/1.0/</dcterms:license><dc:rights>Remix of „Lorelei” (https://www.figma.com/community/file/1198749693280469639) by „Lisa Wischofsky”, licensed under „CC0 1.0” (https://creativecommons.org/publicdomain/zero/1.0/)</dc:rights></rdf:Description></rdf:RDF></metadata><mask id="viewboxMask"><rect width="980" height="980" rx="0" ry="0" x="0" y="0" fill="#fff" /></mask><g mask="url(#viewboxMask)"><g transform="translate(10 -60)"><path fill-rule="evenodd" clip-rule="evenodd" d="M629 155c-11-6-24-9-37-9-17 1-34 4-50 11-19 9-38 22-49 40-5 7-10 16-9 25a91 91 0 0 0-47-16c-28-3-56 4-81 14a286 286 0 0 0-162 190l-2 3a342 342 0 0 0-41 198 370 370 0 0 0 51 158 3136 3136 0 0 0 19 111c2 3 3 7 7 8l6 1 6-3c8-9 14-19 20-30 5 7 11 13 20 16 11 3 24 3 35-1h6l2-1c12 0 24-2 35-4a761 761 0 0 1 52-8l17-2 39-6a598 598 0 0 1 94 1l4 1c11 1 21 2 31 5l6 2 16 5c8 4 16 6 25 5 18-1 35-7 50-17 7-4 13-10 13-19l5 4c9 7 19 14 29 16h11l-3-10-1-4c-12-27-19-58-19-88a851 851 0 0 1 9-113l5-52 2-24a620 620 0 0 0 2-121l-3-23-2-15v-3l-2-18-1-9 1-5a151 151 0 0 0-62-125 180 180 0 0 0-74-32l12-1c24 1 48 5 70 14a106 106 0 0 1 57 53l5 16 1 4 2-2c1-14-3-28-10-40-8-12-17-23-28-31-20-16-46-24-71-27-25-4-52-4-76 4l-27 11-14 7c5-12 14-22 24-31 8-6 17-12 26-15a109 109 0 0 1 57-5l6 1c3-1 5-6 3-9l-6-3-4-2ZM188 463h-1a333 333 0 0 0-19 109 377 377 0 0 0 30 151l-3-28-2-13a1288 1288 0 0 1-8-169v-3l1-33v-5l2-9Z" fill="#000000"/><path d="M528 244c41 6 80 22 113 47 28 21 50 49 65 81 13 28 20 60 19 91-1 15-3 30-8 44h-2l1-21c1-30-2-59-13-87-10-30-28-57-50-79-42-40-98-62-156-63a243 243 0 0 0-196 94 207 207 0 0 0-40 139l2 25c8 0 19 0 25 7l-3 3-17 1c-12 1-24 5-33 13a64 64 0 0 0-17 39c-5 32 12 65 39 83 16 10 36 15 55 9 4-2 9-5 14-3 3 1 4 4 5 7a251 251 0 0 0 90 100c8 7 18 13 28 18 18 8 38 14 57 19l32 8c5 1 9 1 13 3l-4 1c-25 2-48-3-72-10-12-3-23-7-34-12a306 306 0 0 1-84-63l2 28c1 17 0 35-6 52-4 12-11 24-19 34-10 10-22 19-34 26-10 7-21 14-32 18l-16 5 9-9 31-20 22-17a95 95 0 0 0 32-56c2-14 2-28 2-43v-27c-10-14-22-29-27-46-17 8-38 7-55-1-17-7-32-19-43-33-12-17-19-36-21-56s2-40 15-56c9-10 22-18 35-21-4-14-6-29-6-44a234 234 0 0 1 83-173 249 249 0 0 1 199-55Z" fill="#000"/><path d="M653 320c22 22 40 49 50 79 11 28 14 57 13 87l-1 21-5 15-2 13 2 56c0 21 1 42-1 63l-3 47c-2 16-7 31-14 45-11 18-26 33-44 44-13 8-27 12-41 16l-38 11-17 3c0 1 1 2 3 2 8 5 17 5 26 4-3 7-4 14-2 22 3 7 11 11 17 14 12 6 24 7 36 9 7 6 14 14 16 24 2 8 2 16-2 23-5 10-14 18-24 23-13 8-27 14-42 18a468 468 0 0 1-222-1c-17-4-33-9-48-17-12-6-23-13-32-22-5-7-9-14-10-23 11-4 22-11 32-18 12-7 24-16 34-26 8-10 15-22 19-34 6-17 7-35 6-52l-2-28 22 23c19 15 40 30 62 40 11 5 22 9 34 12 24 7 47 12 72 10l4-1c-4-2-8-2-13-3l-32-8c-19-5-39-11-57-19l-29-17c-11-9-23-17-33-27a251 251 0 0 1-56-74c-1-3-2-6-5-7-5-2-10 1-14 3-19 6-39 1-55-9a88 88 0 0 1-39-83c1-14 7-28 17-39 9-8 21-12 33-13l17-1 3-3c-6-7-17-7-25-7l-2-25a207 207 0 0 1 40-139 243 243 0 0 1 196-94c58 1 114 23 156 63Z" fill="#ffffff"/><path d="M710 522c3 0 3 4 4 6 3 11 4 23 5 34l2 21c1 22 2 43 1 65-1 21-1 44-5 65a136 136 0 0 1-80 99c-15 7-31 11-48 13v15c1 3 3 4 5 6 12 6 23 8 36 11 12 3 24 5 36 11-3 3-7 4-11 4-7 1-15-1-23-1-12-2-24-3-36-9-6-3-14-7-17-14-2-8-1-15 2-22-9 1-18 1-26-4-2 0-3-1-3-2l17-3 38-11c14-4 28-8 41-16 18-11 33-26 44-44 7-14 12-29 14-45l3-47c2-21 1-42 1-63l-2-56 2-13ZM252 549c8 0 17 1 23 7 5 4 10 9 12 15 1 3 0 6-2 8l-13 8c-7 6-7 19 0 25 6 5 14 8 21 11 2 0 5 1 6 3-1 2-3 3-5 3-10 0-20-3-28-9-5-3-8-8-9-13-2-8-2-17 4-24 4-6 11-9 18-12-4-5-7-11-14-13-7-3-15-3-22-5l9-4Z" fill="#000"/><path d="M685 500c2 0 5 0 6 2s-1 4-3 5l-19 10 11-1c4-1 7 0 10 3s3 7 1 10c-1 3-4 5-8 5-16 0-32 3-47 7-4 2-7 2-11 0-4-3-5-9-2-13 3-3 7-3 11-6 12-7 25-11 37-17l14-5ZM428 501c20 1 38 8 57 14l30 11c6 1 11 1 15 6 3 5 0 11-5 12-8 2-18-1-27-2-27-2-53-9-79-13-8-1-16-1-23-5-1-1-4-2-3-4 2-4 6-7 10-9 7-2 15 0 22 1 12 1 23 4 34 6l-25-8-15-4v-4l9-1Z" fill="#000000"/><path d="M505 385c8 1 16 2 23 6 5 4 8 9 10 14l-2 2c-2 1-4-1-6-2-9-6-21-7-32-7-9 0-18 2-27 6-8 3-17 5-24 9l-19 7c-13 5-27 5-40 10-7 3-12 9-18 13l-9 9c1-8 5-16 10-22l13-13c7-6 17-9 26-11 10-2 19-6 29-9l19-5c8-2 15-5 23-6l24-1ZM671 399c7 1 14 4 22 4v3c-7 6-15 9-24 10-12 2-26-1-37 3l-5 3c-9 10-14 22-20 34-2-7 3-15 5-22s7-12 9-19c4-9 14-16 24-16h26Z" fill="#000000"/><path d="m591 528 2 2 7 22c4 8 10 15 15 23 4 6 6 13 5 20-1 6-4 12-9 16-7 7-16 12-25 16-5 3-11 4-17 2l5-4c11-9 25-14 36-24 2-2 4-6 4-9-1-7-5-11-8-16-5-9-10-16-13-25-2-7-4-16-2-23Z" fill="#000000"/><path d="M719 585c9 0 17 4 22 11a29 29 0 0 1-6 41c8 2 16 7 22 13 9 11 16 26 15 41-1 8-4 15-8 21-8 13-21 22-35 28l8 9c3 7 4 14 4 22-1 12-6 24-15 33a62 62 0 0 1-38 17c-10 1-21 1-31-2-1 7-3 15-6 22a58 58 0 0 1-70 26c-12-5-22-14-28-24-15 9-31 12-48 12-14 1-31 0-43-7-8-3-13-9-18-15-3-3-5-6-6-11-11 9-26 11-39 9-10-3-19-8-24-17-5-6-6-15-6-23h-14c-8-1-16-5-23-10-11-10-20-23-26-37-2-6-4-12-4-19 0-11 4-22 11-31-3-7-4-14-2-21 3-12 12-22 22-28 9-6 20-8 31-7 2-6 5-10 10-14 11-10 25-16 40-16 10 0 19 1 27 5 4-6 9-9 15-11 11-5 23-4 34 1 19 7 34 18 52 25 5 4 12 3 19 4s14 0 21-1c3-1 7-1 9-3l19-10 20-15c8-5 18-10 28-9 4 1 7 3 9 6a92 92 0 0 1 52-15Z" fill="#000000"/><path d="M619 659c1 3-1 7-2 9-5 9-14 13-21 21 0 4-2 7-3 11-3 9-6 17-13 23-3 2-7 2-11 1-3 0-6-2-7-5-1-5 0-9 3-13 6-12 16-19 26-27 8-6 15-10 21-17 2-1 4-4 7-3Z" fill="#ffffff"/><path d="m618 150 17 7c2 2 5 4 5 7-1 3-4 6-7 5-10-3-21-3-32-2a95 95 0 0 0-80 57 127 127 0 0 1 100-9c19 6 37 15 54 26a153 153 0 0 1 62 138c-2 16-6 31-14 45-6 10-13 18-22 25s-18 11-27 16c-5 2-11 4-16 3l-4-1v-10c-1-13-4-27-7-40-6-22-14-43-24-64-8-14-16-30-28-41 10 21 15 45 13 69-1 19-6 37-12 55-7 17-16 34-29 48-6 6-14 12-22 13l6-12 7-27c2-13 4-26 4-39a158 158 0 0 1-59 78c-5 3-12 6-19 7-3 0-5-3-4-6l7-9c11-16 20-33 27-51 9-22 12-45 12-68a362 362 0 0 1-48 78c-15 15-31 27-50 37l-26 13c-4 1-8 3-11 0a783 783 0 0 0 13-72c1-18-1-36-4-54-1 8-4 16-8 23-9 18-23 34-38 48l-1 5c-2 14-3 29-2 43 1 15 4 28 8 42 2 8 6 15 9 23 1 2 2 4 1 7s-4 4-7 4a96 96 0 0 1-61-13c-3-2-5-5-10-5-28-1-56-13-75-34-13-16-20-36-23-56-3-29 2-57 12-84a281 281 0 0 1 149-155c26-10 55-17 83-14 16 1 34 6 47 16-1-9 3-17 8-24a128 128 0 0 1 78-49c15-3 33-4 48 1Z" fill="#000000"/></g><g transform="translate(10 -60)"></g></g></svg>