<svg xmlns="http://www.w3.org/2000/svg" viewBox="0 0 980 980" fill="none" shape-rendering="auto"><metadata xmlns:rdf="http://www.w3.org/1999/02/22-rdf-syntax-ns#" xmlns:xsi="http://www.w3.org/2001/XMLSchema-instance" xmlns:dc="http://purl.org/dc/elements/1.1/" xmlns:dcterms="http://purl.org/dc/terms/"><rdf:RDF><rdf:Description><dc:title>Lorelei</dc:title><dc:creator>Lisa Wischofsky</dc:creator><dc:source xsi:type="dcterms:URI">https://www.figma.com/community/file/1198749693280469639</dc:source><dcterms:license xsi:type="dcterms:URI">https://creativecommons.org/publicdomain/zero/1.0/</dcterms:license><dc:rights>Remix of „Lorelei” (https://www.figma.com/community/file/1198749693280469639) by „Lisa Wischofsky”, licensed under „CC0 1.0” (https://creativecommons.org/publicdomain/zero/1.0/)</dc:rights></rdf:Description></rdf:RDF></metadata><mask id="viewboxMask"><rect width="980" height="980" rx="0" ry="0" x="0" y="0" fill="#fff" /></mask><g mask="url(#viewboxMask)"><g transform="translate(10 -60)"><path d="M530 219a446 446 0 0 1 133 39c20 11 40 23 57 39 10 9 19 18 27 29 9 12 15 26 17 41 2 18 2 37-4 55-2 7-5 14-10 20l-2-5c0-21-4-41-12-60l-1 19v23c0 15 2 31 5 46l13 70 12 75c3 24 5 46-1 69-3 12-7 23-14 33-3 6-7 10-11 15l-6 2 1-12c2-16 1-31 0-46l-7 12c-7 11-15 20-24 28-11 9-22 17-35 22l-17 4c-19 5-39 4-59 0-36-7-71-17-107-24l-32-4h-39l-42 3c-7 8-16 11-26 14-12 2-25 1-36-4-17-6-30-17-41-31l7 16c2 2 5 6 4 9-1 2-3 2-5 3-7 3-15 1-21-2-16-7-29-19-39-32a214 214 0 0 1-40-115l-1 27c0 16 3 32 8 47 4 11 9 20 12 31l-4-2-7-12c-12-21-17-48-17-72 0-33 10-65 21-96l19-61 11-44c4-15 9-29 15-43a196 196 0 0 1 98-103c11-5 21-10 33-13 14-4 28-6 43-6 5-1 9 0 13 1 5 1 10-2 14-2 32-7 65-7 97-3Z" fill="#000000"/><path d="M486 236c57-2 115 18 159 56a209 209 0 0 1 73 190c-1 4-1 8-4 12l-1-3v-33a215 215 0 0 0-172-206 235 235 0 0 0-270 153c-12 37-14 78-6 116 6-2 12-2 17-2 2 1 5 1 6 3s0 3-1 4l-12 4c-14 3-27 8-37 18a63 63 0 0 0-22 45c0 12 3 24 8 35 8 13 19 24 33 31 18 10 41 13 62 7 2-1 4-2 6-1s3 4 4 6l15 30a215 215 0 0 0 72 63c28 15 59 21 90 26 3 1 8 1 10 4 1 2 0 3-2 4l-11 1a231 231 0 0 1-147-62c5 18 8 36 8 54 0 12-2 23-6 34-5 10-11 18-19 26a196 196 0 0 1-60 43c-1-1 1-2 2-3l17-14c13-12 25-23 35-38a93 93 0 0 0 17-65l-4-39-2-10-12-17c-5-10-11-20-13-31a93 93 0 0 1-96-31 81 81 0 0 1-19-51c0-12 3-23 8-34 9-16 23-29 40-36-8-31-8-62-3-93 8-40 26-77 51-108 45-54 115-87 186-88Z" fill="#000"/><path d="M541 252a214 214 0 0 1 172 206v33c-1 5-2 10-1 15-2 2-3 3-3 5-3 18-1 37 1 55 4 29 6 59 2 88-3 28-13 56-30 79-16 21-38 34-62 43-15 6-30 9-45 13-11 2-22 4-32 8 1 2 4 1 6 2 12 1 24-1 36-2-5 8-8 17-9 26-2 10 2 19 9 26 6 7 15 11 24 14 5 2 11 3 17 3 7 9 13 18 14 30 2 12-1 24-8 34-9 14-22 23-37 30-18 9-38 15-57 18a352 352 0 0 1-192-23c-18-10-38-23-48-42-4-7-8-16-6-24 18-10 33-23 47-38 8-8 14-16 19-26 4-11 6-22 6-34 0-18-3-36-8-54a235 235 0 0 0 147 62l11-1c2-1 3-2 2-4-2-3-7-3-10-4-31-5-62-11-90-26-18-10-36-22-50-37-8-8-16-17-22-26l-15-30c-1-2-2-5-4-6s-4 0-6 1a82 82 0 0 1-95-38c-5-11-8-23-8-35 1-17 9-34 22-45 10-10 23-15 37-18l12-4c1-1 2-2 1-4s-4-2-6-3c-5 0-11 0-17 2-8-38-6-79 6-116a236 236 0 0 1 270-153Z" fill="#ffffff"/><path d="m712 506 3 3 1 13 3 45c3 20 5 40 5 60 0 16-1 32-5 47-6 28-20 56-40 76a174 174 0 0 1-88 46c-1 9-4 16-4 25-1 6 2 10 5 15 8 8 18 14 28 19l18 9c-3 3-8 1-12 2-6 0-12-1-17-3-9-3-18-7-24-14-7-7-11-16-9-26 1-9 4-18 9-26-12 1-24 3-36 2-2-1-5 0-6-2 10-4 21-6 32-8 15-4 30-7 45-13 24-9 46-22 62-43 17-23 27-51 30-79 4-29 2-59-2-88-2-18-4-37-1-55 0-2 1-3 3-5ZM262 566c6 0 12 1 15 6 2 3 2 7 1 10-3 8-9 14-11 22-1 4 0 7 3 9 7 5 16 7 24 10l-2 2h-11c-6-1-12-2-17-5-5-4-9-11-7-18 2-9 9-15 12-23-7-4-14-2-20-8 3-4 8-6 13-5Z" fill="#000"/><path d="M623 498c2-1 5 2 6 3 8 8 19 13 30 13 5 0 11-1 16-3 2-2 4-5 7-6s7 0 9 2c4 3 4 10 0 13-5 7-14 10-22 11-10 1-21-2-30-8-8-4-14-10-17-18-1-3-2-6 1-7ZM530 500l3-1c3 2 1 5 0 7a97 97 0 0 1-50 38c-24 8-52 4-72-12-2-3-4-6-3-10s4-7 8-7c3 0 6 2 8 4 8 5 16 9 25 10 12 2 23 0 34-3 13-4 25-12 36-20 4-2 7-5 11-6Z" fill="#000000"/><path d="m688 421 1 2-13 14c-7 6-14 10-22 14l-26 19-13 6-9 1-10 20-1 1-1-1c-2-5 0-13 1-19 2-6 2-12 8-16 3-3 7-3 10-5l31-20c8-6 16-11 25-13l19-3ZM371 430c9 0 19 0 28 2 9 1 17 4 26 6 5 2 10 1 15 2 8 0 15-1 23 2 8 2 16 3 23 6 12 3 24 5 35 11 0-2 0-4 2-6 2-1 5 0 6 2 5 7 8 17 11 25 1 4-2 9-6 9-5 1-8-4-12-6-5-2-7-7-12-9l-30-9-19-5-15-3-15-4-24-9-30-9-6-5Z" fill="#000000"/><path d="M216 569c5 0 10-1 14 2 3 2 5 5 4 9-2 4-6 7-11 7h-16c-5-1-9-3-11-7-1-4 2-7 5-9 5-2 10-1 15-2ZM229 592c3 1 7 3 7 7 0 3-1 6-4 7-5 4-11 4-17 6-5 1-10 2-14-1s-3-9 0-12c4-4 8-4 13-5s10-3 15-2ZM301 644h8c3 1 6 4 6 8 0 5-4 9-9 10-5 2-9-2-11-6-1-5 1-11 6-12Z" fill="#000000"/><path d="m591 528 2 2 7 22c4 8 10 15 15 23 4 6 6 13 5 20-1 6-4 12-9 16-7 7-16 12-25 16-5 3-11 4-17 2l5-4c11-9 25-14 36-24 2-2 4-6 4-9-1-7-5-11-8-16-5-9-10-16-13-25-2-7-4-16-2-23Z" fill="#000000"/><path d="m636 651-7 7c-7 8-14 16-23 23-8 7-17 13-27 16-11 4-23 4-35 3-16-2-31-5-45-12l-12-7c-1-2-1-4 1-5s6 0 8 1c12 4 24 8 37 9 17 2 34 2 50-3 8-2 15-6 21-10l24-17 8-5Z" fill="#000000"/><path d="M492 216c35 0 70 7 103 17 23 6 45 14 66 24 23 12 45 25 63 44 15 13 27 28 35 46 3 8 5 17 6 26 1 13 0 26-2 39-2 10-6 22-13 30l-2-6c0-20-5-40-12-59 1 19-3 40-15 55-4 4-8 5-12 7s-9 2-13 2c-7-1-15-4-22-7-2-2-5-3-6-6-4-13-5-27-9-40l-6-17c-2 10-4 19-8 28-3 11-8 21-15 30l-8 7-3-14-4-17c-5-21-14-42-26-61v29c-2 16-3 31-10 45-3 7-4 14-10 18-8 4-18 5-27 5-13 0-28 2-41-1-6-2-8-7-11-12l-14-31-11-20c-2 22-2 43-1 64-1 2 0 4-2 5-1 2-3 1-5 0-9-4-16-11-23-18-9-12-19-24-25-37l2 17c3 12 7 24 12 35l2 8-5-2c-7-5-12-12-17-19-7-12-11-27-12-41-5 19-7 39-8 59l-2 10c-1 3-3 4-6 5l-33 5h-11a670 670 0 0 0 13 152l15 61c1 3 0 5-2 7-15-8-26-23-36-38v63l-3 6a245 245 0 0 1-64-94l-6-16a397 397 0 0 1-27-151c1-40 9-80 26-116a217 217 0 0 1 76-91l31-17c11-4 22-9 34-10 10-1 21-3 31 0 4 1 8-1 12-2 20-4 41-6 61-6Z" fill="#000000"/></g><g transform="translate(10 -60)"></g></g></svg>