<svg xmlns="http://www.w3.org/2000/svg" viewBox="0 0 980 980" fill="none" shape-rendering="auto"><metadata xmlns:rdf="http://www.w3.org/1999/02/22-rdf-syntax-ns#" xmlns:xsi="http://www.w3.org/2001/XMLSchema-instance" xmlns:dc="http://purl.org/dc/elements/1.1/" xmlns:dcterms="http://purl.org/dc/terms/"><rdf:RDF><rdf:Description><dc:title>Lorelei</dc:title><dc:creator>Lisa Wischofsky</dc:creator><dc:source xsi:type="dcterms:URI">https://www.figma.com/community/file/1198749693280469639</dc:source><dcterms:license xsi:type="dcterms:URI">https://creativecommons.org/publicdomain/zero/1.0/</dcterms:license><dc:rights>Remix of „Lorelei” (https://www.figma.com/community/file/1198749693280469639) by „Lisa Wischofsky”, licensed under „CC0 1.0” (https://creativecommons.org/publicdomain/zero/1.0/)</dc:rights></rdf:Description></rdf:RDF></metadata><mask id="viewboxMask"><rect width="980" height="980" rx="0" ry="0" x="0" y="0" fill="#fff" /></mask><g mask="url(#viewboxMask)"><g transform="translate(10 -60)"><path d="M397 64c6 5 11 12 15 19 11 18 21 37 28 56 6 13 9 28 11 42l5-6a179 179 0 0 1 85-62 331 331 0 0 1 87-18c6 0 11-1 17 1l6 3c2 1 1 2 0 3l-6 9-17 16-25 34-22 37a201 201 0 0 1 134 37l5 8c1 1 3 2 3 4-1 2-4 2-6 2-6 1-13 1-19 3-14 4-28 10-40 17 13-3 26-5 39-1 2 1 6 2 6 4-1 2-3 2-5 2l-13 2a266 266 0 0 0-81 34c-11 7-19 16-28 24l-5 6c-3 1-5 0-7-2l-19-16a351 351 0 0 0-107-57l-25-9-4 1c-18 7-34 16-50 27-15 11-29 23-41 37-8 9-15 20-23 28l-17 7c-7 4-15 7-23 9-7 3-15 6-22 6-3 0-8 0-8-4-1-5 2-10 5-14 8-12 18-21 31-27-12-12-23-25-36-36l-13-13c0-3 3-5 4-7 13-9 29-15 45-17 14-2 28 0 42 2-6-7-11-16-16-24l-22-34c-10-12-22-24-30-37l-3-9c1-2 4-2 6-2 27-2 55 4 80 14 13 6 24 15 35 25a813 813 0 0 1 26-84l7-27 5-11c1-2 4-3 6-2Z" fill="#000000"/><path d="M495 234c28 1 56 6 84 15a201 201 0 0 1 100 65c19 25 31 55 35 86a361 361 0 0 1 2 101l-5 34-4 20c-1 2-1 2-3 2-2-4-2-8-2-12-1-15 1-29 2-44 1-24 3-48 1-72l-6-45c-7-28-20-54-40-75-18-18-40-33-63-43-22-9-44-15-67-19-18-3-36-4-54-4a277 277 0 0 0-128 29c-13 9-25 20-35 32a276 276 0 0 0-55 139c-1 24 0 47 8 70l7 15 12 1 1 3c-3 2-7 2-11 3-10 2-20 6-29 12-7 5-14 11-18 19-5 10-3 22-1 33 5 19 17 37 33 49 11 9 25 14 39 16 10 2 20 0 30-1 5 4 8 12 11 17l18 27a136 136 0 0 0 66 50c22 9 45 14 68 19l41 8 17 5v4h-12a535 535 0 0 1-67-8 255 255 0 0 1-84-33c-11-7-21-16-29-27a214 214 0 0 1-16 123c-15 27-40 48-70 57-3 1-7 2-10 1-2 0-2-1-2-3 1-3 4-5 6-6 12-8 26-14 38-23 13-11 24-23 31-38 6-15 10-32 12-49 2-13 3-26 2-40l-4-38-18-36-19 4a88 88 0 0 1-75-38 93 93 0 0 1-20-58c0-9 3-18 8-25s12-13 19-17c5-4 12-6 18-8l-9-24c-5-22-5-45-2-67a292 292 0 0 1 63-149c9-10 18-19 29-26 7-4 14-5 20-9 43-19 90-25 137-22Z" fill="#000"/><path d="M475 243a276 276 0 0 1 121 23c23 10 45 25 63 43 20 21 33 47 40 75l6 45c2 24 0 48-1 72-1 15-3 29-2 44 0 4 0 8 2 12l-1 20c-2 5-2 10-2 16-2 24-2 49-6 74-1 12-3 25-8 36-3 9-8 17-15 24-12 13-27 24-43 33-19 11-39 16-58 24-5 2-10 4-13 8 8 1 15 0 23-2-5 12-6 24-6 36 0 5-1 11 1 16 3 5 8 9 13 12l35 13c22 8 43 18 65 27 2 4 5 7 6 12 6 11 7 23 3 35-5 13-15 24-27 31-16 11-36 19-55 24a494 494 0 0 1-235-7c-20-7-40-14-58-24-14-8-29-18-40-31-6-8-11-19-12-29a122 122 0 0 0 86-107c4-24 4-49 0-73 8 11 18 20 29 27l27 14a331 331 0 0 0 124 27h12v-4l-17-5-41-8c-23-5-46-10-68-19-13-6-27-13-39-21-10-9-19-18-27-29l-18-27c-3-5-6-13-11-17-10 1-20 3-30 1-14-2-28-7-39-16a94 94 0 0 1-33-49c-2-11-4-23 1-33 4-8 11-14 18-19 9-6 19-10 29-12 4-1 8-1 11-3l-1-3-12-1-7-15c-8-23-9-46-7-70a276 276 0 0 1 54-139c10-12 22-23 35-32a277 277 0 0 1 128-30Z" fill="#ffffff"/><path d="M260 571c4 0 7 0 11 2 5 1 11 4 14 8 2 3 2 7 0 10-5 6-12 10-16 16 6 4 14 6 21 9 4 1 8 3 11 6l1 3-8-2-24-7c-4-1-8-3-9-7-1-3 1-7 3-10l15-13c-4-7-15-8-19-15ZM703 577l2 3 2 16a483 483 0 0 1-2 89c-2 11-5 23-10 33a198 198 0 0 1-106 71c-1 14-3 31-2 47l5 5c8 6 18 9 27 12a451 451 0 0 1 68 28c7 4 13 9 18 15-5 1-10-1-16-2-22-9-43-19-65-27l-35-13c-5-3-10-7-13-12-2-5-1-11-1-16 0-12 1-24 6-36-8 2-15 3-23 2 3-4 8-6 13-8 19-8 39-13 58-24 16-9 31-20 43-33 7-7 12-15 15-24 5-11 7-24 8-36 4-25 4-50 6-74 0-6 0-11 2-16Z" fill="#000"/><path d="M669 473c8-1 16 1 22 6 3 3 6 7 6 11 1 5-4 10-9 10-4-1-6-3-8-6l-10-7c9 16 4 38-10 49-7 6-18 8-25 1-6-5-8-12-8-20-2 5-5 9-6 14-1 2-1 4-3 4-2-5-1-11 1-17 6-16 17-30 32-38 5-4 11-6 18-7ZM457 484c27 1 53 18 64 42 2 2 4 6 1 9-3 0-5-4-7-6-4-8-10-14-17-19 2 11 2 21-4 31-5 8-16 13-25 12-7-2-14-5-19-11-6-6-8-16-8-24 0-7 3-13 6-18-14 3-28 9-39 18-3 1-5 3-8 3-4-1-6-4-6-8 0-3 2-6 4-8 8-6 16-12 26-16s21-6 32-5Z" fill="#000000"/><path d="M524 402c7 3 12 9 15 16 4 6 6 12 4 19-1 2-2 5-4 3-3-2-5-6-6-9l-14 2-26 3-39 4c-12 1-24 0-36-1-3 0-7-1-9-3-3-2-2-7 1-8 9-3 20-2 30-4 7-1 14-4 20-6 9-3 17-7 26-9l20-5c5-1 12-4 18-2ZM631 404c11 0 19 6 30 8 6 2 14 1 20 5 2 1 3 4 2 7-2 2-5 2-8 2l-14 1-25 6-23 2-5 18-3 3-2-5c-1-10 0-21 5-30 2-4 4-9 8-12 4-4 10-6 15-5Z" fill="#000000"/><path d="M607 606c0 3-2 6-4 9-4 6-11 10-18 12-5 1-9-2-13 0-4 0-8 1-12-1-2-1-2-4 0-6 3-4 8-7 12-7 4-1 7-1 10 2l1 7c5-2 7-5 11-8l13-8Z" fill="#000000"/><path d="M607 684c3 2 2 6 1 9-2 8-4 15-9 22-5 5-10 10-17 12-10 4-22 2-31-3-4-2-9-5-11-9-1-1-2-3-1-4 2-2 5-3 8-3 9 1 18 6 27 7 7 1 13-3 17-8 5-6 8-15 12-22 1-2 2-2 4-1Z" fill="#000000"/><path d="M398 64a390 390 0 0 1 43 76c5 14 8 28 10 42 17-25 40-45 67-59a275 275 0 0 1 120-28c5 0 11 1 14 5-1 4-4 7-7 10a472 472 0 0 0-64 88c30-3 60 2 89 13 15 6 32 12 44 23 4 4 7 9 9 13-3 2-7 2-11 3-9 0-18 3-27 6l-28 13c12-3 24-5 37-2 3 1 7 1 9 5-4 3-10 3-15 4a213 213 0 0 0-116 63c-2 3-5 1-8 0-7-5-13-12-19-18a354 354 0 0 0-106-57l-33-9-27-7h-8c-12 2-24 8-34 14-20 11-35 29-47 48l-12 20-13 31c-9 4-19 8-28 10-4 1-7 0-10-1v-6l8-12c7-10 17-18 27-26-7-5-13-12-19-18-8-8-15-17-24-24l-7-7c0-3 3-5 4-7 13-10 30-15 46-17 13-2 28 0 41 3a390 390 0 0 0-38-58c-10-13-23-26-31-40-1-2-3-6-1-9h5c27-2 55 4 80 14 13 6 24 15 35 25a833 833 0 0 1 26-82l7-29 5-12c2-2 5-2 7-1Z" fill="#000000"/></g><g transform="translate(10 -60)"></g></g></svg>